<svg width="120" height="50" viewBox="0 0 120 50" fill="none" xmlns="http://www.w3.org/2000/svg">
<path d="M18.752 36.2729C6.03269 36.5471 3.26947 18.6811 15.7778 15.0952C18.6887 14.2093 24.5105 13.7452 34.0657 13.7241C35.4579 13.7241 36.5758 14.8421 36.5758 16.2342C36.5758 17.6264 35.4579 18.7443 34.0868 18.7654C22.4222 18.7865 18.6254 19.5037 17.2333 19.9256C10.842 21.6341 11.2849 30.2191 17.5918 31.1894C23.5823 31.8433 26.3667 24.3552 21.2832 20.6849C22.9285 20.5162 25.5229 20.3685 27.5268 20.3052C28.2862 21.5919 28.7713 23.0474 28.919 24.545C29.615 30.5144 24.7214 36.1041 18.752 36.2729ZM14.238 14.1038C11.2006 13.8718 7.31939 13.7452 2.51011 13.7452C1.11795 13.7452 0 14.8632 0 16.2553C0 17.6475 1.11795 18.7654 2.48901 18.7865C4.64053 18.7865 6.53893 18.8076 8.18421 18.8709C9.57638 16.6983 11.6435 15.0741 14.238 14.1038Z" fill="#E12D2B"/>
<path d="M44.0639 24.8523C45.0553 25.4851 45.5616 26.3921 45.5616 27.5944C45.5616 28.6491 45.1819 29.4928 44.4436 30.1467C43.6843 30.8006 42.7562 31.1381 41.6593 31.1381H36.5758V19.0305H41.3218C42.3976 19.0305 43.3046 19.3469 44.0428 20.0008C44.7811 20.6336 45.1397 21.4773 45.1397 22.5109C45.1186 23.4601 44.76 24.2406 44.0639 24.8523ZM41.3007 21.625H39.3179V23.7765H41.3007C41.6171 23.7765 41.8702 23.6711 42.0601 23.4812C42.2499 23.2703 42.3554 23.0172 42.3554 22.7008C42.3554 22.3844 42.2499 22.1312 42.0601 21.9203C41.8491 21.7305 41.596 21.625 41.3007 21.625ZM41.6382 28.5436C41.9757 28.5436 42.271 28.4381 42.4608 28.2272C42.6718 28.0163 42.7772 27.7421 42.7772 27.3835C42.7772 27.0249 42.6718 26.7507 42.4608 26.5397C42.2499 26.3288 41.9757 26.2233 41.6382 26.2233H39.3179V28.5436H41.6382Z" fill="#24272C"/>
<path d="M49.063 21.2664C48.7466 21.5617 48.388 21.7305 47.9662 21.7305C47.5443 21.7305 47.1646 21.5828 46.8693 21.2664C46.5529 20.9711 46.4053 20.5914 46.4053 20.1695C46.4053 19.7477 46.5529 19.368 46.8693 19.0727C47.1646 18.7774 47.5443 18.6086 47.9662 18.6086C48.388 18.6086 48.7677 18.7563 49.063 19.0727C49.3583 19.368 49.5271 19.7477 49.5271 20.1695C49.5271 20.5914 49.3794 20.9711 49.063 21.2664ZM46.6795 31.1381V22.4898H49.274V31.1381H46.6795Z" fill="#24272C"/>
<path d="M59.3145 31.1381H56.3825L53.6193 27.3202V31.1381H51.0248V19.0305H53.6193V26.2866L56.2137 22.4898H59.2512L56.1083 26.814L59.3145 31.1381Z" fill="#24272C"/>
<path d="M61.8877 27.8476C62.183 28.6492 62.8791 29.05 63.9549 29.05C64.651 29.05 65.2205 28.839 65.6213 28.3961L67.6884 29.5984C66.8447 30.7796 65.5791 31.3913 63.9127 31.3913C62.4573 31.3913 61.2971 30.9484 60.4323 30.0835C59.5675 29.2187 59.1245 28.1219 59.1245 26.8141C59.1245 25.5063 59.5464 24.4305 60.4112 23.5446C61.276 22.6798 62.3729 22.2368 63.7229 22.2368C64.9885 22.2368 66.022 22.6798 66.8658 23.5446C67.7095 24.4094 68.1103 25.5063 68.1103 26.8141C68.1103 27.1937 68.0681 27.5312 68.0048 27.8476H61.8877ZM61.8456 25.9071H65.558C65.3049 25 64.6932 24.536 63.7229 24.536C62.7104 24.5571 62.0987 25 61.8456 25.9071Z" fill="#24272C"/>
<path d="M74.375 19.0305C76.0414 19.0305 77.4547 19.6 78.5726 20.7602C79.6905 21.9203 80.2601 23.3547 80.2601 25.0843C80.2601 26.814 79.6905 28.2483 78.5726 29.4084C77.4547 30.5686 76.0414 31.1381 74.375 31.1381H69.5236V19.0305H74.375ZM74.375 28.4803C75.3242 28.4803 76.1047 28.1639 76.6953 27.5522C77.2859 26.9405 77.5812 26.1179 77.5812 25.0843C77.5812 24.0507 77.2859 23.2281 76.6953 22.6164C76.1047 22.0047 75.3242 21.6883 74.375 21.6883H72.3079V28.4803H74.375Z" fill="#24272C"/>
<path d="M83.8671 27.8476C84.1624 28.6492 84.8585 29.05 85.9343 29.05C86.6303 29.05 87.1999 28.839 87.6006 28.3961L89.6678 29.5984C88.824 30.7796 87.5584 31.3913 85.8921 31.3913C84.4366 31.3913 83.2765 30.9484 82.4117 30.0835C81.5468 29.2187 81.1039 28.1219 81.1039 26.8141C81.1039 25.5063 81.5257 24.4305 82.3906 23.5446C83.2554 22.6798 84.3523 22.2368 85.7022 22.2368C86.9678 22.2368 88.0014 22.6798 88.8451 23.5446C89.6889 24.4094 90.0896 25.5063 90.0896 26.8141C90.0896 27.1937 90.0475 27.5312 89.9842 27.8476H83.8671ZM83.8249 25.9071H87.5373C87.2842 25 86.6725 24.536 85.7022 24.536C84.7108 24.5571 84.078 25 83.8249 25.9071Z" fill="#24272C"/>
<path d="M99.7292 31.1381H96.7762L94.0129 27.3202V31.1381H91.4185V19.0305H94.0129V26.2866L96.6074 22.4898H99.6449L96.4809 26.814L99.7292 31.1381Z" fill="#24272C"/>
<path d="M105.572 22.2578C106.5 22.2578 107.26 22.5742 107.892 23.207C108.504 23.8398 108.82 24.7257 108.82 25.8437V31.1592H106.226V26.2023C106.226 25.696 106.078 25.2952 105.804 25.0421C105.53 24.7679 105.15 24.6413 104.728 24.6413C104.222 24.6413 103.842 24.789 103.547 25.0843C103.252 25.3796 103.104 25.8226 103.104 26.4132V31.1381H100.51V19.0305H103.104V23.3125C103.61 22.5953 104.454 22.2578 105.572 22.2578Z" fill="#24272C"/>
<path d="M117.827 30.0624C116.941 30.9484 115.845 31.3913 114.579 31.3913C113.292 31.3913 112.217 30.9484 111.331 30.0624C110.445 29.1765 110.002 28.1008 110.002 26.8141C110.002 25.5274 110.445 24.4516 111.331 23.5657C112.217 22.6798 113.313 22.2368 114.579 22.2368C115.866 22.2368 116.941 22.6798 117.827 23.5657C118.713 24.4516 119.156 25.5274 119.156 26.8141C119.156 28.1008 118.713 29.1765 117.827 30.0624ZM113.166 28.2906C113.545 28.6703 114.009 28.8601 114.579 28.8601C115.148 28.8601 115.613 28.6703 115.992 28.2906C116.372 27.9109 116.562 27.4258 116.562 26.8141C116.562 26.2235 116.372 25.7172 115.992 25.3375C115.613 24.9579 115.148 24.768 114.579 24.768C114.009 24.768 113.545 24.9579 113.166 25.3375C112.786 25.7172 112.596 26.2024 112.596 26.8141C112.596 27.4258 112.786 27.9109 113.166 28.2906Z" fill="#24272C"/>
</svg>
