<svg width="78" height="50" viewBox="0 0 78 50" fill="none" xmlns="http://www.w3.org/2000/svg">
<path d="M8.90117 13.1107C8.90117 12.9973 8.85615 12.8887 8.77601 12.8085C8.69587 12.7284 8.58717 12.6833 8.47384 12.6833H0.427334C0.313998 12.6833 0.205305 12.7284 0.125164 12.8085C0.0450233 12.8887 0 12.9973 0 13.1107V21.1572C-9.14307e-07 21.2132 0.01107 21.2686 0.0325752 21.3204C0.0540804 21.3721 0.0855948 21.419 0.125308 21.4585C0.165022 21.498 0.212152 21.5292 0.263984 21.5505C0.315817 21.5717 0.371331 21.5824 0.427334 21.5821H3.13459C3.1906 21.5824 3.24611 21.5717 3.29794 21.5505C3.34977 21.5292 3.3969 21.498 3.43661 21.4585C3.47633 21.419 3.50785 21.3721 3.52935 21.3204C3.55086 21.2686 3.56193 21.2132 3.56193 21.1572V16.5269C3.56193 16.4516 3.59185 16.3793 3.64513 16.3261C3.6984 16.2728 3.77066 16.2428 3.846 16.2428H8.47384C8.58717 16.2428 8.69587 16.1978 8.77601 16.1177C8.85615 16.0375 8.90117 15.9288 8.90117 15.8155V13.1107Z" fill="#46BE88"/>
<path d="M16.5259 20.6712C16.5259 20.5205 16.466 20.376 16.3595 20.2694C16.2529 20.1629 16.1084 20.103 15.9577 20.103H8.71733C8.56664 20.103 8.42213 20.1629 8.31558 20.2694C8.20903 20.376 8.14917 20.5205 8.14917 20.6712V32.3743C8.14917 32.525 8.20903 32.6695 8.31558 32.7761C8.42213 32.8826 8.56664 32.9425 8.71733 32.9425H11.1599C11.3108 32.9425 11.4556 32.8827 11.5625 32.7762C11.6695 32.6697 11.7299 32.5252 11.7305 32.3743V24.0389C11.7305 23.9449 11.7679 23.8547 11.8343 23.7882C11.9008 23.7217 11.991 23.6844 12.085 23.6844H15.9699C16.1208 23.6837 16.2653 23.6233 16.3718 23.5164C16.4782 23.4095 16.538 23.2647 16.538 23.1138L16.5259 20.6712Z" fill="#3D4159"/>
<path d="M40.6043 19.676C36.8773 19.676 33.8228 22.4586 33.563 25.9889C33.5509 26.1564 33.5436 26.9868 33.5436 27.4822C33.5436 28.0309 33.5436 28.6088 33.5436 28.633V36.7475C33.5436 36.8795 33.596 37.0061 33.6894 37.0995C33.7827 37.1928 33.9093 37.2453 34.0413 37.2453H36.6223C36.7543 37.2453 36.8809 37.1928 36.9743 37.0995C37.0676 37.0061 37.1201 36.8795 37.1201 36.7475V32.0857C37.9532 32.6987 38.9189 33.1071 39.939 33.2779C40.16 33.2997 40.3833 33.3094 40.6092 33.3094C44.1686 33.3094 47.1139 30.7697 47.6043 27.4676C47.6043 27.5064 47.6043 27.5453 47.6043 27.5817C47.6043 27.504 47.6213 27.4239 47.6262 27.3389C47.6631 27.0571 47.6818 26.7733 47.682 26.4891C47.6796 22.7281 44.5159 19.676 40.6043 19.676ZM40.7111 30.0534C39.9888 30.0912 39.272 29.9092 38.6553 29.5312C38.0386 29.1532 37.551 28.5972 37.2569 27.9364C36.9627 27.2756 36.8758 26.5412 37.0076 25.83C37.1394 25.1188 37.4838 24.4643 37.9952 23.9529C38.5067 23.4414 39.1612 23.0971 39.8724 22.9652C40.5836 22.8334 41.318 22.9203 41.9788 23.2145C42.6396 23.5087 43.1956 23.9963 43.5736 24.613C43.9515 25.2296 44.1336 25.9464 44.0958 26.6688C44.0508 27.5506 43.6808 28.3846 43.0571 29.0096C42.4333 29.6347 41.6002 30.0066 40.7184 30.0534H40.7111Z" fill="#3D4159"/>
<path d="M31.5913 26.6762V20.5576C31.5913 20.4922 31.5784 20.4275 31.5534 20.3671C31.5284 20.3067 31.4917 20.2518 31.4455 20.2056C31.3993 20.1594 31.3444 20.1227 31.284 20.0977C31.2237 20.0727 31.1589 20.0598 31.0936 20.0598H28.5223C28.4569 20.0598 28.3922 20.0727 28.3318 20.0977C28.2714 20.1227 28.2165 20.1594 28.1703 20.2056C28.1241 20.2518 28.0874 20.3067 28.0624 20.3671C28.0374 20.4275 28.0245 20.4922 28.0245 20.5576V27.072C27.9565 28.5919 26.6381 30.1313 25.1109 30.1313C23.5837 30.1313 22.2555 28.5919 22.1972 27.072V20.5576C22.1972 20.4256 22.1448 20.299 22.0515 20.2056C21.9581 20.1123 21.8315 20.0598 21.6995 20.0598H19.1258C19.0602 20.0595 18.9952 20.0721 18.9346 20.097C18.8739 20.1219 18.8187 20.1585 18.7723 20.2047C18.7258 20.251 18.6889 20.306 18.6637 20.3665C18.6386 20.4271 18.6256 20.492 18.6256 20.5576V26.7296V26.783C18.6256 30.6023 21.5393 33.3387 25.1206 33.3387C28.702 33.3387 31.618 30.5999 31.618 26.783C31.5937 26.7466 31.5913 26.7126 31.5913 26.6762Z" fill="#3D4159"/>
<path d="M61.6874 20.0623H59.121C58.989 20.0623 58.8624 20.1147 58.769 20.208C58.6757 20.3014 58.6233 20.428 58.6233 20.56V25.1538C58.6233 25.1538 58.6111 25.5982 58.599 25.688C58.3999 27.1157 57.1422 28.3054 55.6853 28.3054C54.2285 28.3054 52.9611 27.0793 52.7887 25.6346C52.7887 25.5642 52.7693 25.1029 52.7693 25.1029V20.5576C52.7693 20.4256 52.7168 20.299 52.6235 20.2056C52.5301 20.1123 52.4035 20.0598 52.2715 20.0598H49.6978C49.6322 20.0595 49.5673 20.0721 49.5066 20.097C49.4459 20.1219 49.3908 20.1585 49.3443 20.2047C49.2978 20.251 49.2609 20.306 49.2358 20.3665C49.2106 20.4271 49.1976 20.492 49.1976 20.5576V25.0737V25.1296C49.1976 28.9489 52.1113 31.6852 55.6926 31.6852C56.7015 31.6882 57.6979 31.4615 58.6063 31.0224V31.0467C58.5383 32.5691 57.2198 34.106 55.6926 34.106H52.3225C52.2569 34.106 52.192 34.1189 52.1315 34.1441C52.0709 34.1693 52.0159 34.2062 51.9697 34.2526C51.9234 34.2991 51.8868 34.3543 51.862 34.4149C51.8371 34.4756 51.8244 34.5406 51.8248 34.6062V36.8181C51.8248 36.9501 51.8772 37.0767 51.9706 37.1701C52.0639 37.2634 52.1905 37.3159 52.3225 37.3159H55.6999C57.3655 37.3393 58.9744 36.7113 60.1837 35.5656C61.3929 34.4198 62.1067 32.8471 62.173 31.1826C62.173 31.0442 62.1852 30.4664 62.1876 29.9905C62.1876 27.9169 62.1876 22.2693 62.1876 20.56C62.1876 20.4944 62.1747 20.4295 62.1495 20.369C62.1243 20.3084 62.0874 20.2534 62.041 20.2072C61.9945 20.1609 61.9393 20.1243 61.8787 20.0994C61.818 20.0746 61.753 20.0619 61.6874 20.0623Z" fill="#3D4159"/>
<path d="M76.5719 20.0623H74.0055C73.8733 20.0622 73.7464 20.1146 73.6527 20.2079C73.559 20.3012 73.506 20.4278 73.5053 20.56V25.1538C73.5053 25.1538 73.4932 25.5982 73.4811 25.688C73.282 27.1157 72.0242 28.3054 70.5674 28.3054C69.1106 28.3054 67.8432 27.0793 67.6683 25.6346C67.6683 25.5642 67.6513 25.1029 67.6513 25.1029V20.5576C67.6513 20.4256 67.5989 20.299 67.5056 20.2056C67.4122 20.1123 67.2856 20.0598 67.1536 20.0598H64.5799C64.5143 20.0595 64.4493 20.0721 64.3887 20.097C64.328 20.1219 64.2728 20.1585 64.2264 20.2047C64.1799 20.251 64.143 20.306 64.1178 20.3665C64.0927 20.4271 64.0797 20.492 64.0797 20.5576V25.0737V25.1296C64.0797 28.9489 66.9934 31.6852 70.5747 31.6852C71.5836 31.6882 72.58 31.4615 73.4883 31.0224V31.0467C73.4204 32.5691 72.1019 34.106 70.5747 34.106H67.207C67.1415 34.106 67.0765 34.1189 67.016 34.1441C66.9554 34.1693 66.9004 34.2062 66.8542 34.2526C66.8079 34.2991 66.7713 34.3543 66.7465 34.4149C66.7216 34.4756 66.7089 34.5406 66.7093 34.6062V36.8181C66.7093 36.9501 66.7617 37.0767 66.8551 37.1701C66.9484 37.2634 67.075 37.3159 67.207 37.3159H70.5844C72.25 37.3393 73.859 36.7113 75.0682 35.5656C76.2774 34.4198 76.9912 32.8471 77.0576 31.1826C77.0576 31.0442 77.0697 30.4664 77.0697 29.9905C77.0697 27.9169 77.0697 22.2693 77.0697 20.56C77.0714 20.4942 77.0596 20.4287 77.0352 20.3676C77.0108 20.3064 76.9742 20.2509 76.9276 20.2043C76.8811 20.1578 76.8255 20.1212 76.7644 20.0967C76.7032 20.0723 76.6378 20.0606 76.5719 20.0623Z" fill="#3D4159"/>
</svg>
