<svg width="120" height="50" viewBox="0 0 120 50" fill="none" xmlns="http://www.w3.org/2000/svg">
<path d="M103.774 29.0297L103.823 28.844L105.24 28.8159C105.52 28.7268 105.796 28.6192 106.067 28.4934C106.273 28.413 106.484 28.3498 106.698 28.3042L111.031 28.0903C110.99 28.6445 110.88 29.188 110.705 29.7027L106.538 29.5695C106.179 29.5223 105.831 29.3952 105.511 29.1945C105.425 29.1373 105.331 29.1004 105.234 29.0858L103.774 29.0297Z" fill="#231F20"/>
<path d="M102.687 19.8105L102.757 19.6292H103.772C104.425 19.5629 105.073 19.4481 105.712 19.2857C106.947 18.9975 108.204 18.842 109.467 18.8214C110.615 18.7917 111.759 18.9823 112.846 19.3843L112.337 20.4308L105.607 20.4117C105.386 20.3974 105.169 20.3335 104.972 20.224L104.433 19.9887C104.209 19.8872 103.968 19.8353 103.725 19.836L102.687 19.8105Z" fill="#231F20"/>
<path d="M103.413 27.8073L103.464 27.644L104.91 27.5623C104.977 27.5582 105.044 27.5487 105.109 27.5339L105.929 27.2071C106.081 27.139 106.24 27.1018 106.402 27.097L110.965 26.8804C111.006 27.2817 111.03 27.5161 111.03 27.5907C111.039 27.8922 111.026 28.194 110.992 28.4928L106.417 28.3827C105.989 28.345 105.572 28.2062 105.19 27.9743C105.083 27.9094 104.967 27.8719 104.848 27.8642L103.413 27.8073Z" fill="#231F20"/>
<path d="M101.596 26.2274L101.649 26.0348L102.79 25.9813C103.022 25.9655 103.252 25.9188 103.476 25.8422L104.197 25.571C104.31 25.5179 104.429 25.4889 104.549 25.4854L110.489 25.2678C110.769 25.7486 110.954 26.3001 111.03 26.8802L104.582 26.7732C104.234 26.7567 103.893 26.6547 103.579 26.4736C103.38 26.3756 103.173 26.3015 102.962 26.2524L101.596 26.2274Z" fill="#231F20"/>
<path d="M100.873 21.3421L100.923 21.1454L102.331 21.097C102.43 21.0898 102.528 21.0736 102.625 21.0486L103.452 20.7261C103.597 20.6737 103.749 20.6497 103.901 20.6552L112.484 20.4294L111.897 22.0419L111.498 21.858C110.826 21.5581 110.107 21.408 109.382 21.4162C108.811 21.3726 108.244 21.5482 107.777 21.9129L104.221 21.8129C103.799 21.8269 103.378 21.7604 102.977 21.6162C102.752 21.4867 102.51 21.3943 102.261 21.3421H100.873Z" fill="#231F20"/>
<path d="M100.51 24.613L100.563 24.4208L101.908 24.3923C102.215 24.3136 102.517 24.2041 102.809 24.0649C103.025 23.9609 103.252 23.8973 103.483 23.8762L108.644 23.6555C109.315 23.9856 109.892 24.5457 110.307 25.2679L103.381 25.1576C103.122 25.1478 102.867 25.0739 102.631 24.9405C102.379 24.7837 102.103 24.6905 101.82 24.6664L100.51 24.613Z" fill="#231F20"/>
<path d="M100.51 22.9827L100.582 22.793L101.806 22.7649C102.102 22.726 102.392 22.6361 102.667 22.4979C102.896 22.381 103.137 22.2996 103.383 22.2555L107.518 22.0413C107.463 22.1739 107.436 22.3211 107.438 22.4698C107.438 22.8211 107.71 23.1724 108.206 23.4956C108.306 23.5376 108.402 23.5905 108.493 23.6537L103.773 23.5202C103.229 23.5012 102.691 23.3644 102.185 23.1162C102.106 23.0704 102.02 23.0431 101.933 23.0354L100.51 22.9827Z" fill="#231F20"/>
<path d="M97.9684 30.6533L98.0207 30.4948L99.3578 30.4431C99.4644 30.4458 99.5699 30.4187 99.6659 30.3639L100.538 30.0194C100.674 29.9636 100.818 29.9367 100.962 29.9401L110.668 29.7024C110.466 30.2652 110.221 30.8049 109.936 31.3148L100.724 31.1804C100.362 31.1189 100.009 30.9947 99.6776 30.8118C99.5785 30.7564 99.4724 30.7204 99.3636 30.705L97.9684 30.6533Z" fill="#231F20"/>
<path d="M97.9684 32.1291L98.0186 31.9887L99.4404 31.9419C99.7556 31.8881 100.063 31.7906 100.354 31.6517C100.556 31.5436 100.774 31.4729 100.998 31.4426L109.942 31.3147C109.228 31.8885 108.417 32.3122 107.551 32.5629C106.467 32.8289 105.356 32.9495 104.244 32.9217C103.095 32.955 101.947 32.8344 100.827 32.5629L99.6709 32.2352C99.5487 32.2002 99.4222 32.1844 99.2956 32.1884L97.9684 32.1291Z" fill="#231F20"/>
<path d="M92.8933 19.7459L92.961 19.5283L94.415 19.4712C94.6445 19.4457 94.8686 19.372 95.0773 19.2536C95.3398 19.1044 95.6216 19.0115 95.9103 18.9789L99.4246 18.8184L98.8801 20.4308L95.6218 20.2738C95.2574 20.2169 94.905 20.0777 94.5828 19.8636C94.4993 19.8205 94.411 19.7929 94.3208 19.7815L92.8933 19.7459Z" fill="#231F20"/>
<path d="M92.1649 21.33L92.2355 21.1413L93.6918 21.1129C93.6918 21.1129 93.8154 21.0773 94.0184 21.0061L94.3303 20.8673L94.6392 20.7284C94.7808 20.6569 94.9329 20.6206 95.0864 20.6217L98.6962 20.4294L98.1519 22.0419L94.9981 21.8781C94.8371 21.8644 94.6781 21.8273 94.5244 21.7678L93.8213 21.4403C93.7593 21.4027 93.6905 21.3844 93.6212 21.3869L92.1649 21.33Z" fill="#231F20"/>
<path d="M91.8025 22.9703L91.8733 22.7781L93.1536 22.7496C93.1996 22.749 93.2453 22.7406 93.2893 22.7247H93.3896L94.2421 22.3936C94.6291 22.2823 95.0245 22.2191 95.4221 22.205L98.3338 22.0413L97.788 23.6537L94.9649 23.5433C94.4692 23.4793 93.984 23.3269 93.5253 23.0913C93.4246 23.0388 93.3163 23.0109 93.2067 23.0094L91.8025 22.9703Z" fill="#231F20"/>
<path d="M91.0778 24.5311L91.128 24.3638L92.6043 24.3389C92.7293 24.302 92.8525 24.2569 92.9734 24.2037C93.2999 24.0435 93.6393 23.9242 93.9861 23.8477L97.6091 23.6555L97.0658 25.2679L95.1465 25.1861C94.5677 25.198 93.9894 25.1335 93.4222 24.9939L92.7578 24.6949C92.6821 24.6529 92.6014 24.6253 92.5187 24.613L91.0778 24.5311Z" fill="#231F20"/>
<path d="M90.7118 26.1547L90.7443 25.9934L92.2583 25.9408C92.3337 25.9301 92.4068 25.9028 92.4737 25.8602C92.8621 25.6482 93.2766 25.5121 93.7015 25.4571L97.2431 25.2678L96.6794 26.8802L93.4152 26.691C93.2906 26.6838 93.1683 26.6481 93.0552 26.5858C92.7552 26.4254 92.4428 26.2998 92.1225 26.2107L90.7118 26.1547Z" fill="#231F20"/>
<path d="M89.9871 27.3786C90.0035 27.3121 90.0273 27.2486 90.0579 27.1899L91.5004 27.1614C91.5754 27.1537 91.648 27.1257 91.7128 27.0796L92.353 26.834C92.5338 26.7488 92.7233 26.6938 92.9164 26.6702L96.5184 26.478L95.9726 28.0904L93.2645 27.9552C92.9221 27.9662 92.5805 27.9109 92.2527 27.7915L91.7689 27.5423C91.6061 27.4558 91.4305 27.4098 91.2526 27.407L89.9871 27.3786Z" fill="#231F20"/>
<path d="M89.2605 28.9909L89.3312 28.7987L90.7872 28.7737C90.8342 28.7615 90.8797 28.7424 90.9228 28.7168L91.5123 28.4712L91.7451 28.3929C91.9177 28.3346 92.0928 28.2883 92.2697 28.2541L95.7918 28.0903L95.2407 29.7027L92.476 29.5639C92.2471 29.5612 92.0186 29.5386 91.7923 29.4963C91.5094 29.3986 91.2318 29.2798 90.9611 29.1404C90.8539 29.0781 90.7379 29.0407 90.6192 29.03L89.2605 28.9909Z" fill="#231F20"/>
<path d="M88.8981 30.6212L88.9696 30.4251L90.4024 30.3706C90.4837 30.3646 90.5638 30.345 90.6407 30.3125L91.5344 29.9493L91.8919 29.8694L95.5053 29.7024H100.146L99.5953 31.3148L92.8809 31.2059C92.3243 31.2311 91.7673 31.175 91.2216 31.0388L90.5782 30.7156C90.489 30.6662 90.393 30.6379 90.2952 30.6321L88.8981 30.6212Z" fill="#231F20"/>
<path d="M88.1715 32.2401L88.2221 32.0515L89.6904 31.9981C89.7717 31.9934 89.852 31.9742 89.9286 31.9412L90.7714 31.6137C90.9427 31.5418 91.1229 31.5045 91.3045 31.5033L99.4199 31.3147L98.8481 32.9271L91.1764 32.7776C90.9447 32.7708 90.715 32.7241 90.4944 32.6388L89.9256 32.3647C89.8112 32.3093 89.6887 32.2814 89.5653 32.2829L88.1715 32.2401Z" fill="#231F20"/>
<path d="M80.5543 19.7578L80.6018 19.5404L82.0276 19.5159C82.1291 19.5035 82.2288 19.4752 82.324 19.4318L83.24 19.0813C83.3736 19.0273 83.5138 19 83.655 19.0006L92.1655 18.8184L91.5964 20.4308L83.3645 20.2695C83.114 20.2621 82.868 20.1891 82.6442 20.0557C82.425 19.9183 82.1873 19.8269 81.9416 19.7858L80.5543 19.7578Z" fill="#231F20"/>
<path d="M79.826 21.3585L79.8795 21.1662L81.3279 21.1413C81.4557 21.1285 81.5809 21.0912 81.6989 21.031C82.1029 20.8634 82.5153 20.7267 82.9337 20.6217L91.4373 20.4294L90.8882 22.0419H83.0316C82.7905 22.042 82.5517 21.9864 82.3282 21.8781L81.5802 21.5222C81.4496 21.4652 81.3157 21.42 81.1795 21.3869L79.826 21.3585Z" fill="#231F20"/>
<path d="M79.4636 22.9434L79.5167 22.78L80.974 22.7232C81.0618 22.7133 81.1476 22.6857 81.2277 22.6415C81.6147 22.4506 82.0185 22.3136 82.4313 22.233L85.9949 22.0413L85.4492 23.6537L82.2042 23.4903C82.0876 23.4917 81.9721 23.4639 81.8649 23.4086L81.1422 23.0641C81.0521 23.0194 80.9594 22.9826 80.8649 22.954L79.4636 22.9434Z" fill="#231F20"/>
<path d="M78.7371 24.5529L78.8113 24.3598L80.2401 24.3312C80.4629 24.2926 80.68 24.2155 80.8846 24.1024C81.1466 23.9659 81.4238 23.8767 81.7074 23.8379L85.1679 23.6555H90.3483L89.8077 25.2679L82.6134 25.1321C82.4144 25.1321 82.1352 25.1321 81.7787 25.1035C81.4995 25.0856 81.3124 25.0677 81.2203 25.0498L80.3708 24.6673C80.1143 24.609 79.8536 24.5814 79.5925 24.5851L78.7371 24.5529Z" fill="#231F20"/>
<path d="M78.3765 26.1422L78.4476 25.9429H79.6956C79.9936 25.9071 80.286 25.8223 80.5641 25.691C80.8491 25.5591 81.1485 25.4755 81.4534 25.4427L89.9877 25.2678L89.4185 26.8802L81.1185 26.7089C80.9928 26.6975 80.8702 26.6583 80.7568 26.5934C80.4571 26.4112 80.1381 26.2771 79.8082 26.1947L78.3765 26.1422Z" fill="#231F20"/>
<path d="M77.6499 27.4174L77.6826 27.2282L79.1492 27.1756C79.2627 27.1537 79.3741 27.1185 79.4817 27.0704L79.835 26.9337C80.1489 26.7935 80.4795 26.7119 80.8147 26.6918L89.2611 26.478L88.7119 28.0904H80.4822C80.2246 28.0456 79.9806 27.925 79.7726 27.7399C79.5776 27.57 79.3462 27.468 79.1046 27.4455L77.6499 27.4174Z" fill="#231F20"/>
<path d="M77.2858 29.3698L77.3388 29.1775L78.7984 29.1526C78.9665 29.0957 79.2171 28.996 79.5533 28.8501C79.7558 28.739 79.9739 28.675 80.1961 28.6614L83.8171 28.4941L83.2509 30.1066L80.0516 29.9143C79.8241 29.8799 79.6017 29.8068 79.3911 29.6972L79.0078 29.5086C78.9085 29.4511 78.7994 29.4231 78.6893 29.4267L77.2858 29.3698Z" fill="#231F20"/>
<path d="M76.5627 30.6172L76.5954 30.4534L77.7025 30.4C77.8952 30.3964 78.0875 30.3786 78.2783 30.3466L79.0381 30.0512C79.2016 29.9711 79.3753 29.9254 79.5516 29.916L83.0926 29.7024H88.174L87.6189 31.3148L79.2815 31.1546C79.1709 31.1532 79.0617 31.1241 78.961 31.0692L78.3525 30.7773C78.0344 30.674 77.7054 30.6272 77.376 30.6385L76.5627 30.6172Z" fill="#231F20"/>
<path d="M75.8345 32.2401L75.8878 32.0764L77.3285 32.023C77.569 31.9772 77.8026 31.8897 78.0221 31.7632C78.2969 31.613 78.5923 31.525 78.8936 31.5033L87.4457 31.3147L86.8973 32.9271L78.2474 32.7064L77.9866 32.5961C77.7564 32.4578 77.5123 32.3561 77.2603 32.2935L75.8345 32.2401Z" fill="#231F20"/>
<path d="M68.2136 19.7578L68.267 19.5404L69.6899 19.5159C69.7913 19.5031 69.8909 19.4748 69.9863 19.4318L70.9023 19.0813C71.0349 19.0276 71.1741 19.0003 71.3143 19.0006L79.8248 18.8184L79.2587 20.4308L71.0297 20.2695C70.7791 20.2628 70.533 20.1897 70.3094 20.0557C70.0892 19.9181 69.8505 19.8268 69.6039 19.7858L68.2136 19.7578Z" fill="#231F20"/>
<path d="M67.8549 21.3584L67.9053 21.1662L69.35 21.1413C69.4787 21.1285 69.6049 21.0913 69.7238 21.031C70.1305 20.863 70.5456 20.7263 70.9668 20.6217L79.4661 20.4294L78.9143 22.0419H71.0558C70.8148 22.0423 70.5761 21.9867 70.3527 21.8781L69.6051 21.5222C69.4739 21.4643 69.339 21.419 69.2017 21.3869L67.8549 21.3584Z" fill="#231F20"/>
<path d="M67.1283 22.9434L67.1814 22.78L68.6387 22.7232C68.7257 22.7144 68.8106 22.6867 68.8894 22.6415C69.2784 22.4503 69.6842 22.3133 70.0989 22.233L73.6596 22.0413L73.1139 23.6537L69.8688 23.4903C69.7513 23.4921 69.6347 23.4643 69.5266 23.4086L68.8039 23.0819C68.7128 23.0373 68.6191 23.0005 68.5236 22.9718L67.1283 22.9434Z" fill="#231F20"/>
<path d="M66.4017 24.5561L66.473 24.3638L67.901 24.3354C68.1238 24.2969 68.3407 24.2202 68.5453 24.1076C68.807 23.9716 69.0842 23.8828 69.3676 23.8442L72.8323 23.6555H78.0129L77.4607 25.2679L70.2731 25.1327C70.0772 25.1327 69.7981 25.1327 69.4389 25.1042C69.1598 25.0864 68.9757 25.0686 68.8807 25.0508L68.0316 24.67C67.7753 24.6119 67.5147 24.5845 67.2538 24.5881L66.4017 24.5561Z" fill="#231F20"/>
<path d="M66.0376 26.1422L66.1088 25.9429H67.3482C67.6482 25.907 67.9426 25.8223 68.2229 25.691C68.5077 25.5584 68.8073 25.4747 69.1124 25.4427L77.6488 25.2678L77.0795 26.8802L68.7773 26.7089C68.6527 26.697 68.531 26.6578 68.4185 26.5934C68.1188 26.4112 67.7997 26.2771 67.4697 26.1947L66.0376 26.1422Z" fill="#231F20"/>
<path d="M65.311 27.4174L65.3437 27.2282L66.8103 27.1756C66.9238 27.1533 67.0351 27.1181 67.1428 27.0704L67.4931 26.9337C67.808 26.7931 68.1396 26.7115 68.4758 26.6918L76.9223 26.478L76.373 28.0904H68.1374C67.8804 28.0465 67.6372 27.9258 67.4308 27.7399C67.2345 27.5704 67.0022 27.4685 66.7598 27.4455L65.311 27.4174Z" fill="#231F20"/>
<path d="M64.9504 29.3698L65.0036 29.1775L66.4615 29.1526C66.6298 29.0957 66.8806 28.996 67.2171 28.8501C67.4198 28.739 67.6381 28.675 67.8605 28.6614L71.4817 28.4941L70.918 30.1066L67.7129 29.9143C67.4862 29.8793 67.2647 29.8062 67.0547 29.6972L66.6711 29.5086C66.5716 29.4515 66.4624 29.4235 66.3523 29.4267L64.9504 29.3698Z" fill="#231F20"/>
<path d="M64.2257 30.6109L64.2584 30.4458L65.3687 30.3919C65.5605 30.3883 65.7518 30.3703 65.9417 30.338L66.7047 30.04C66.8669 29.9642 67.0386 29.9229 67.2124 29.9179L70.7572 29.7024H75.8369L75.2877 31.3148L66.9482 31.1532C66.8365 31.1518 66.7263 31.1225 66.6245 31.067L66.0308 30.7725C65.7115 30.6689 65.3815 30.6218 65.0511 30.6325L64.2257 30.6109Z" fill="#231F20"/>
<path d="M63.8597 32.2401L63.913 32.0764L65.3544 32.023C65.5937 31.9775 65.826 31.89 66.0441 31.7632C66.3239 31.6105 66.6251 31.5223 66.932 31.5033L75.471 31.3147L74.9234 32.9271L66.2868 32.7064L66.0263 32.5961C65.7963 32.4583 65.5526 32.3566 65.3012 32.2935L63.8597 32.2401Z" fill="#231F20"/>
<path d="M60.957 19.7459L61.0277 19.5283L62.4994 19.4712C62.7607 19.4242 63.0154 19.3329 63.2558 19.2001C63.4812 19.0928 63.7164 19.0185 63.9563 18.9789L67.4883 18.8184L66.9556 20.4308L63.7827 20.2381C63.5369 20.2162 63.295 20.1513 63.0645 20.0455C62.8858 19.9068 62.6854 19.8145 62.4758 19.7744L60.957 19.7459Z" fill="#231F20"/>
<path d="M60.5966 21.332L60.6499 21.1393L62.0331 21.0858C62.1331 21.0803 62.2324 21.0623 62.3294 21.0323L63.218 20.6756C63.3852 20.6285 63.5558 20.6011 63.7274 20.5935L67.1279 20.4294L66.5799 22.0419L63.5438 21.8778C63.3482 21.8728 63.154 21.8368 62.9662 21.7707L62.359 21.4961C62.2001 21.4154 62.0306 21.3695 61.8584 21.3605L60.5966 21.332Z" fill="#231F20"/>
<path d="M59.87 22.9434L59.9408 22.7516L61.3981 22.6983C61.4246 22.6983 61.5161 22.677 61.6724 22.6415L62.3686 22.3431C62.5055 22.2756 62.6515 22.2383 62.7993 22.233L66.4013 22.0413L65.829 23.6537L62.879 23.5187C62.5765 23.4831 62.279 23.4007 61.994 23.2737L61.5515 23.0819C61.462 23.0171 61.3608 22.9794 61.2565 22.9718L59.87 22.9434Z" fill="#231F20"/>
<path d="M57.6921 28.9944L57.7451 28.8022L59.2161 28.7737C59.2517 28.7459 59.2918 28.7277 59.3338 28.7203L59.8751 28.5281L60.187 28.3929C60.328 28.3185 60.4804 28.2809 60.6342 28.2825L64.2234 28.0903L63.6586 29.7027L60.4488 29.539C60.4205 29.5339 60.3928 29.5243 60.3664 29.5105L60.0928 29.4571L59.4838 29.1582C59.3045 29.0907 59.1184 29.0536 58.9307 29.0478L57.6921 28.9944Z" fill="#231F20"/>
<path d="M56.9656 30.6335L57.0156 30.4408L58.0188 30.4159C58.2754 30.4127 58.5309 30.3756 58.7808 30.3053L59.4192 30.0306C59.5866 29.9473 59.765 29.9013 59.9459 29.895L63.4969 29.7024L62.9526 31.3148L60.2136 31.2078C59.9068 31.2151 59.6007 31.1694 59.3045 31.0722L58.7161 30.769C58.7161 30.769 58.5778 30.7333 58.3395 30.6584L56.9656 30.6335Z" fill="#231F20"/>
<path d="M56.605 32.2155L56.6579 32.0543L58.1269 32.0017C58.4104 31.9172 58.6876 31.8047 58.9554 31.6652C59.0436 31.6337 59.2492 31.5776 59.543 31.504L63.1363 31.3147L62.5751 32.9271L59.3433 32.7659C59.2512 32.7495 59.119 32.7145 58.9466 32.6607L58.2679 32.3663C58.1753 32.3169 58.0755 32.2895 57.9741 32.2857L56.605 32.2155Z" fill="#231F20"/>
<path d="M53.3381 19.6923L53.4088 19.4997L54.8805 19.4712C55.1309 19.4072 55.3761 19.3165 55.6133 19.2001C55.8361 19.083 56.0724 19.0084 56.3139 18.9789L59.8694 18.8184L59.3249 20.4308L56.1019 20.2738C55.8679 20.2652 55.6377 20.1997 55.425 20.0812C55.2271 19.9455 55.0179 19.8355 54.801 19.753L53.3381 19.6923Z" fill="#231F20"/>
<path d="M52.974 21.2999L53.0271 21.1358L54.3664 21.0823C54.4192 21.083 54.4719 21.0746 54.5228 21.0573H54.6231L55.5346 20.7006C55.6987 20.6363 55.8696 20.6002 56.042 20.5935L59.5053 20.4294L58.9596 22.0419L55.7382 21.8742C55.3835 21.7969 55.0398 21.6588 54.7175 21.464C54.631 21.4213 54.5423 21.3856 54.452 21.3569L52.974 21.2999Z" fill="#231F20"/>
<path d="M52.251 22.8475L52.3216 22.6701L53.7537 22.6443L53.8331 22.6185L54.0477 22.5701L54.483 22.3928C54.7229 22.2913 54.9741 22.2252 55.2299 22.1961L58.7823 22.0413L58.1647 23.6537L55.124 23.3763C54.7467 23.315 54.3787 23.1978 54.0301 23.0281C53.9172 22.9625 53.7948 22.9189 53.6684 22.8991L52.251 22.8475Z" fill="#231F20"/>
<path d="M51.8887 24.5443L51.9591 24.3546L53.4255 24.3019C53.4522 24.2982 53.478 24.2887 53.5018 24.2738L54.2936 23.9506L54.8949 23.8171L66.0398 23.6555L65.5061 25.2679L54.6749 25.0818C54.5107 25.0725 54.3495 25.026 54.1998 24.9447L53.5604 24.6497C53.4535 24.5964 53.3389 24.569 53.2231 24.5689L51.8887 24.5443Z" fill="#231F20"/>
<path d="M51.1603 26.1317L51.1925 25.9708L52.6181 25.9184C52.7042 25.9184 52.7896 25.8994 52.8699 25.8624L53.4876 25.6211C53.7351 25.5091 53.996 25.4454 54.2604 25.4322L65.3114 25.2678L64.7494 26.8802L53.9179 26.6914C53.7734 26.6717 53.6322 26.6257 53.4993 26.555L52.9138 26.2891C52.7339 26.2256 52.548 26.1891 52.3605 26.1807L51.1603 26.1317Z" fill="#231F20"/>
<path d="M50.4355 27.3894L50.4853 27.1756L51.8138 27.151C52.1116 27.0874 52.405 26.9971 52.6917 26.8811C52.9943 26.742 53.3155 26.6695 53.6398 26.6673L64.5867 26.478L64.0249 28.0904L53.3208 27.9292C53.1381 27.9353 52.9561 27.8984 52.7853 27.8205L52.0479 27.47C51.9581 27.4429 51.8652 27.4335 51.7728 27.442L50.4355 27.3894Z" fill="#231F20"/>
<path d="M50.0731 29.0033L50.1434 28.8522L51.5499 28.8029C51.7383 28.7926 51.9228 28.7389 52.092 28.6453C52.3569 28.5101 52.6368 28.4151 52.9242 28.3629L56.6044 28.0903L56.0184 29.7027L53.0179 29.5484C52.5828 29.4903 52.1592 29.3528 51.7638 29.1412C51.6898 29.099 51.6092 29.0734 51.5265 29.0657L50.0731 29.0033Z" fill="#231F20"/>
<path d="M49.3466 30.6228L49.4143 30.4043L50.8506 30.3778C51.1207 30.3019 51.3853 30.2034 51.6424 30.0831C51.8441 30.0001 52.0519 29.937 52.2634 29.8944L55.8779 29.7024L55.3392 31.3148L52.4371 31.1526C52.1823 31.1523 51.9291 31.1076 51.6865 31.0201L51.0419 30.7188C50.9426 30.6656 50.8341 30.6373 50.724 30.6361L49.3466 30.6228Z" fill="#231F20"/>
<path d="M48.6218 32.2155L48.6952 32.0543L50.1049 32.0017C50.3907 31.9416 50.6697 31.8416 50.936 31.7038C51.1926 31.597 51.4605 31.5333 51.7318 31.5145L55.1531 31.3147L54.5922 32.9271L51.306 32.7378C51.2654 32.7334 51.2251 32.7252 51.1856 32.7133L51.0065 32.6607C50.7928 32.584 50.5854 32.4843 50.3868 32.3628C50.2878 32.303 50.1802 32.2662 50.0696 32.2541L48.6218 32.2155Z" fill="#231F20"/>
<path d="M46.4421 19.694L46.4915 19.5053L47.9052 19.4484C48.0105 19.4399 48.1142 19.4123 48.2128 19.3665L48.9966 19.0675C49.1323 19.004 49.2753 18.9668 49.4204 18.9572L53.6992 18.8184L52.8283 20.4308L49.3072 20.2421C48.9965 20.2264 48.6907 20.142 48.4044 19.993C48.1316 19.8331 47.8356 19.7412 47.5336 19.7225L46.4421 19.694Z" fill="#231F20"/>
<path d="M38.4626 19.6263L38.5341 19.4235L39.3296 19.395H39.8271C40.0697 19.3895 40.31 19.3379 40.5391 19.2419C40.8866 19.085 41.2504 18.9856 41.6205 18.9465L45.7197 18.8184L45.4873 20.4308L41.3553 20.2314C41.1267 20.2035 40.9028 20.1351 40.691 20.0286C40.4467 19.9111 40.1905 19.8008 39.9194 19.6726L38.4626 19.6263Z" fill="#231F20"/>
<path d="M38.0984 32.1334L38.1682 31.9696L39.277 31.9447C39.4988 31.9529 39.7201 31.9156 39.9318 31.8344C40.4295 31.6315 40.7409 31.5176 40.8631 31.4784C41.0772 31.4323 41.2947 31.4132 41.5121 31.4215L46.0811 31.3147L45.208 32.9271L40.9417 32.7064C40.676 32.6659 40.4164 32.5796 40.1705 32.4502C39.9593 32.3278 39.7332 32.2485 39.5011 32.2152L38.0984 32.1334Z" fill="#231F20"/>
<path d="M31.5684 21.2037L31.6389 20.9983H32.5418C32.8186 21.0127 33.0956 20.9763 33.3623 20.8906L34.1182 20.591C34.2658 20.5485 34.4163 20.5203 34.5681 20.5069L37.8855 20.4294L37.7943 21.0488L39.206 21.0286C39.2996 21.0281 39.3927 21.0122 39.4824 20.9815L40.1206 20.7661C40.3219 20.6869 40.5316 20.6393 40.7441 20.6247L45.4966 20.5069L45.3849 21.1027L46.1525 21.1296C46.2554 21.1296 46.4083 21.1296 46.6024 21.1027L47.0524 21.0488L47.7876 20.7661C47.9551 20.6878 48.1333 20.6434 48.314 20.6348L52.6137 20.5069L51.7314 22.0318L48.0699 21.8365C47.7078 21.7318 47.3537 21.5933 47.0112 21.4225L46.8289 21.3686H46.7701L45.3525 21.3181L45.2672 22.0419L41.5264 21.8769C41.0311 21.8841 40.537 21.8196 40.0559 21.685L39.4677 21.3787C39.2812 21.2926 39.0803 21.2547 38.8795 21.2676L37.7767 21.2407L37.6679 21.9139L34.3181 21.7355C33.9085 21.5476 33.4879 21.3923 33.0594 21.271L31.5684 21.2037Z" fill="#231F20"/>
<path d="M31.5684 22.8061L31.6596 22.6235H32.5693L32.7842 22.596L33.1375 22.5684C33.2324 22.573 33.3265 22.5455 33.4084 22.4892L34.0413 22.2549C34.1444 22.217 34.2857 22.1722 34.4682 22.1205L37.8332 22.0413L37.739 22.6476H38.2513C38.4714 22.6542 38.6908 22.6145 38.899 22.5305L39.632 22.2101C39.7889 22.1456 39.9545 22.1152 40.1207 22.1205H45.4524L45.3228 22.7544L45.6967 22.7269L46.2266 22.7028C46.3415 22.6476 46.6241 22.5339 47.0775 22.3582C47.2389 22.2858 47.4109 22.2507 47.5838 22.2549L51.888 22.1205L51.0048 23.6537L48.52 23.5228C47.9897 23.4927 47.461 23.4306 46.9361 23.3367L46.2149 23.0197C46.1513 22.9954 46.0843 22.986 46.0176 22.9922L45.5466 22.9646H45.3081L45.1815 23.6537L40.3504 23.4332C40.0721 23.438 39.7941 23.4114 39.5202 23.3539L38.7194 23.0094C38.593 22.943 38.4573 22.9045 38.319 22.8957H37.6919L37.5742 23.5641L34.2769 23.3539C34.0583 23.3098 33.8462 23.2298 33.6468 23.1162C33.4512 22.9993 33.2384 22.9268 33.0198 22.9026L31.5684 22.8061Z" fill="#231F20"/>
<path d="M31.2042 24.4274L31.2748 24.2593L32.1367 24.2525C32.4122 24.2613 32.6877 24.2325 32.9574 24.1667L33.8105 23.8236C34.0221 23.7698 34.2381 23.7422 34.4547 23.7413L37.4316 23.6555L37.3521 24.2525C37.524 24.2502 37.6945 24.2178 37.8581 24.1564C38.2586 23.9861 38.6773 23.881 39.1024 23.8442L45.0356 23.7276L44.9444 24.3314C45.164 24.319 45.3805 24.2657 45.5857 24.1735C45.9053 24.006 46.246 23.8994 46.5946 23.8579L50.7982 23.7276L49.9157 25.2542L46.5064 25.0964C46.2224 25.0715 45.9441 24.9915 45.6827 24.8597C45.4303 24.7309 45.1641 24.642 44.8914 24.5955L44.8032 25.2542L39.2907 25.0587C38.9827 25.0674 38.6753 25.0223 38.3788 24.9249L37.6551 24.5818L37.2992 24.5303L37.1933 25.2679L34.4135 25.0724C33.9228 25.0236 33.4436 24.8725 32.9986 24.6264C32.9456 24.6092 32.825 24.5646 32.6368 24.4892L31.2042 24.4274Z" fill="#231F20"/>
<path d="M30.8436 26.0255L30.8937 25.87L32.2683 25.8474C32.3821 25.8424 32.4944 25.8173 32.6009 25.7729C33.0688 25.5525 33.5656 25.4159 34.0727 25.3682L37.0163 25.2678L36.9574 25.7146C37.0467 25.7071 37.1333 25.6772 37.2106 25.6272L37.5962 25.4815C37.7444 25.4122 37.9031 25.3738 38.0642 25.3682L41.2491 25.2678L40.9724 25.7405C41.0399 25.7245 41.1059 25.7018 41.1696 25.6725L41.5552 25.5657C41.697 25.5331 41.8406 25.5103 41.985 25.4977L44.6342 25.3682L44.5724 25.7632C44.8565 25.584 45.1754 25.4819 45.5026 25.4653L49.7119 25.3682L48.8111 26.8058L45.3201 26.6309C45.0954 26.6057 44.8746 26.548 44.6636 26.4593C44.5915 26.4527 44.5219 26.4272 44.4605 26.3849L44.3663 26.8802L42.1528 26.673C41.7284 26.6394 41.3119 26.53 40.9194 26.3492C40.8457 26.2981 40.7638 26.2629 40.6781 26.2456L40.366 26.7896L38.0112 26.5986C37.6174 26.5528 37.2328 26.438 36.872 26.2586L36.7985 26.8025L33.8961 26.5824C33.5698 26.559 33.2484 26.4826 32.9424 26.3557C32.754 26.2715 32.5067 26.1776 32.2006 26.0773L30.8436 26.0255Z" fill="#231F20"/>
<path d="M30.8436 27.6558L30.8936 27.4679L32.3266 27.4406C32.574 27.3936 32.8159 27.3133 33.0474 27.2015C33.3196 27.0707 33.6073 26.9889 33.9007 26.9589L40.5652 26.8804L40.2562 27.5124C40.5961 27.4596 40.9297 27.3622 41.2507 27.222C41.4619 27.1296 41.6843 27.0765 41.9098 27.0648L48.9862 26.9589L48.0799 28.4928L41.7186 28.2844C41.4849 28.2608 41.2567 28.1891 41.0448 28.0726C40.7465 27.9213 40.4299 27.8245 40.1061 27.7856L39.7589 28.4142L33.6124 28.199C33.3649 28.1697 33.1249 28.0838 32.9062 27.9462C32.6926 27.8121 32.4589 27.7263 32.2177 27.6934L30.8436 27.6558Z" fill="#231F20"/>
<path d="M30.4795 28.869L30.5294 28.6795L31.9603 28.6554C32.0875 28.6417 32.2123 28.6057 32.3305 28.5486C32.7443 28.3417 33.1837 28.2137 33.632 28.1696L39.5992 28.0903L39.2702 28.7243H39.8578C40.044 28.7142 40.2275 28.6688 40.4013 28.5899C40.7782 28.4199 41.174 28.3143 41.5766 28.2764L47.8963 28.1696L46.9973 29.7027L41.1358 29.4926L40.842 29.3858L40.181 29.0964C39.9579 29.0138 39.7242 28.9777 39.4905 28.9896H39.1556L38.7883 29.6235L33.3617 29.434C32.9631 29.3177 32.5707 29.1738 32.1865 29.0033C32.0833 28.9578 31.9772 28.9221 31.8692 28.8965L30.4795 28.869Z" fill="#231F20"/>
<path d="M30.4795 30.4449L30.5676 30.2728L31.8831 30.2983C32.0235 30.2807 32.1615 30.2455 32.2943 30.1931C32.7673 30.0118 33.2616 29.9045 33.7625 29.8745H34.0973L38.9777 29.7024L38.6518 30.3142H39.7119C39.8101 30.3187 39.9085 30.3123 40.0055 30.2951L40.7984 30.072C40.9959 29.9815 41.2098 29.9412 41.4239 29.9541L47.1706 29.8745L46.2544 31.3148L42.0053 31.1204C41.6283 31.1155 41.2522 31.0782 40.8806 31.0089L40.1406 30.6902L39.847 30.5819C39.847 30.5819 39.847 30.5819 39.7706 30.5532L38.5108 30.5245L38.1673 31.1619L33.369 30.993C33.1574 30.9902 32.9485 30.9403 32.7553 30.8464L32.1327 30.5755C32.1327 30.5755 32.0094 30.5532 31.798 30.5054L30.4795 30.4449Z" fill="#231F20"/>
<path d="M31.9308 19.6923L31.9965 19.4712H33.4472L33.5214 19.4141L33.8613 19.2999C33.9273 19.2619 33.9962 19.2321 34.0669 19.2108C34.2554 19.1358 34.501 19.0502 34.8037 18.9503L38.0992 18.8184L37.8736 20.4308L34.7751 20.2381C34.5162 20.2234 34.2617 20.1497 34.0241 20.0205C33.8116 19.8814 33.5818 19.7885 33.3444 19.7459L31.9308 19.6923Z" fill="#231F20"/>
<path d="M30.1171 32.178L30.1675 31.9889L31.6726 31.9604C31.7467 31.9561 31.8198 31.938 31.8894 31.9069C32.2382 31.762 32.5941 31.6428 32.9551 31.5501C33.3598 31.4879 33.7673 31.4558 34.1752 31.4538L38.0998 31.3147L37.2923 32.9271L33.1006 32.7702C32.6847 32.684 32.279 32.5379 31.8923 32.3349C31.7699 32.2762 31.6408 32.2401 31.5094 32.2279L30.1171 32.178Z" fill="#231F20"/>
<path d="M0 32.5239L0.696983 29.6831L9.04045 21.6396H3.0522L3.76661 18.8184H13.0626L12.1827 22.3954L4.56233 29.6831H11.1924L10.4954 32.5239H0Z" fill="#ED1C24"/>
<path d="M11.9729 32.5239L15.4387 18.8184H18.8671L15.5366 32.5239H11.9729Z" fill="#ED1C24"/>
<path d="M18.5193 27.065C18.7525 24.4365 19.6812 22.3375 21.3055 20.7681C22.9298 19.1988 24.9427 18.4141 27.3442 18.4141C27.6026 18.4141 27.8794 18.4205 28.1748 18.4334C28.4662 18.4334 28.7577 18.4719 29.0666 18.5073C29.7908 18.5993 30.4876 18.8673 31.1067 19.292C31.7158 19.7165 31.981 20.4626 31.9198 21.5432C31.9089 21.7221 31.8894 21.9003 31.8615 22.077C31.8297 22.2825 31.7859 22.4856 31.7304 22.6849L28.3963 22.6656C28.3949 22.2325 28.2462 21.8159 27.9795 21.4982C27.726 21.2184 27.2305 21.0769 26.499 21.0769C25.5061 21.0769 24.593 21.5936 23.7594 22.627C22.9574 23.5915 22.4136 24.7827 22.1886 26.068C22.1714 26.1252 22.1616 26.1847 22.1594 26.2449C22.1594 26.3125 22.1594 26.3832 22.1594 26.4604C22.1492 26.6435 22.1492 26.8272 22.1594 27.0103C22.1711 27.2076 22.1925 27.4041 22.2235 27.5988C22.3297 28.1847 22.574 28.7294 22.9317 29.1779C23.299 29.657 23.8702 29.8982 24.6367 29.8982C24.829 29.8982 25.0942 29.8789 25.4352 29.8404C25.8595 29.7768 26.2729 29.6446 26.6622 29.448L27.1926 27.2161H24.8028L25.5052 24.4311H31.3806L29.5824 31.7731C28.37 32.0111 27.2635 32.1955 26.2629 32.3263C25.3986 32.4476 24.5286 32.5131 23.6574 32.5225H23.3077C21.4289 32.5353 20.1378 32.0272 19.4344 30.9981C18.7311 29.969 18.426 28.6644 18.5193 27.0843V27.065Z" fill="#ED1C24"/>
<path d="M119.514 32.7563C119.354 32.7563 119.233 32.7088 119.152 32.6137C119.07 32.5185 119.029 32.3801 119.029 32.1983C119.029 32.0228 119.071 31.8875 119.155 31.7924C119.238 31.6952 119.358 31.6465 119.514 31.6465C119.664 31.6465 119.783 31.6952 119.871 31.7924C119.957 31.8896 119.999 32.0249 119.999 32.1983C119.999 32.3758 119.958 32.5132 119.874 32.6105C119.788 32.7077 119.668 32.7563 119.514 32.7563Z" fill="#231F20"/>
<path d="M116.45 29.2859C116.45 29.6533 116.575 29.9378 116.825 30.1394C117.072 30.3409 117.418 30.4417 117.862 30.4417C118.786 30.4417 119.248 30.0564 119.248 29.2859C119.248 28.9626 119.176 28.571 119.03 28.1112H119.767C119.909 28.4891 119.98 28.9111 119.98 29.3772C119.98 30.047 119.797 30.5593 119.433 30.9141C119.066 31.2689 118.541 31.4463 117.856 31.4463C117.426 31.4463 117.049 31.3592 116.725 31.1849C116.4 31.0106 116.152 30.7608 115.98 30.4354C115.806 30.1079 115.719 29.7247 115.719 29.2859C115.719 28.8387 115.816 28.3894 116.011 27.938L116.725 28.2529C116.652 28.4251 116.587 28.5983 116.533 28.7726C116.478 28.9468 116.45 29.1179 116.45 29.2859Z" fill="#231F20"/>
<path d="M117.845 22.9496C118.531 22.9496 119.058 23.1386 119.427 23.5165C119.795 23.8944 119.98 24.4361 119.98 25.1415C119.98 25.8469 119.795 26.3886 119.427 26.7665C119.058 27.1444 118.529 27.3334 117.839 27.3334C117.15 27.3334 116.623 27.1444 116.26 26.7665C115.896 26.3865 115.713 25.8427 115.713 25.1352C115.713 24.4277 115.897 23.887 116.263 23.5133C116.63 23.1375 117.157 22.9496 117.845 22.9496ZM117.845 26.3099C118.308 26.3099 118.657 26.2122 118.891 26.017C119.125 25.8217 119.243 25.5299 119.243 25.1415C119.243 24.3626 118.777 23.9731 117.845 23.9731C116.912 23.9731 116.445 24.3605 116.445 25.1352C116.445 25.5236 116.563 25.8165 116.799 26.0138C117.033 26.2112 117.382 26.3099 117.845 26.3099Z" fill="#231F20"/>
<path d="M119.923 20.046L116.672 21.1545V21.1829C117.333 21.143 117.774 21.123 117.995 21.123H119.923V21.9954H115.779V20.6664L118.948 19.5768V19.5579L115.779 18.4021V17.0731H119.923V17.9832H117.961C117.869 17.9832 117.762 17.9822 117.641 17.9801C117.52 17.9759 117.199 17.9612 116.677 17.936V17.9644L119.923 19.1516V20.046Z" fill="#231F20"/>
</svg>
