<svg width="120" height="50" viewBox="0 0 120 50" fill="none" xmlns="http://www.w3.org/2000/svg">
<path d="M0 16.2007H2.50983V18.717H0V16.2007ZM15.0901 16.2007H5.02745V18.7092H12.5725V20.6646L9.43134 22.4798C7.48272 23.6016 6.29016 25.6739 6.29016 27.9254V30.1457L4.60655 29.1718C3.31266 28.424 2.50983 27.045 2.50983 25.5493V21.2333H0V25.783C0 28.0266 1.20035 30.1067 3.14118 31.2285L6.29016 33.0437L7.59964 33.7994L8.80778 33.106L11.949 31.2909C13.8976 30.169 15.0901 28.0968 15.0901 25.8453V16.2007ZM12.5803 25.6116C12.5803 27.1074 11.7775 28.4941 10.4836 29.242L8.80778 30.208V28.1669C8.80778 26.6711 9.60282 25.2844 10.9045 24.5365L12.5803 23.5705V25.6116Z" fill="#F34653"/>
<path fill-rule="evenodd" clip-rule="evenodd" d="M88.6727 21.2178C88.6727 24.0613 86.5604 26.2348 83.7933 26.2348H80.0052V16.2007H83.7933C86.5604 16.2007 88.6727 18.382 88.6727 21.2178ZM86.5292 21.2178C86.5292 19.4961 85.4379 18.3664 83.8557 18.3664H82.1331V24.0769H83.8557C85.4379 24.0769 86.5292 22.9395 86.5292 21.2178ZM55.6092 18.7252V26.2508H53.4735V25.3705C53.0059 25.908 52.3044 26.2352 51.3534 26.2352C49.4906 26.2352 47.9472 24.5992 47.9472 22.4802C47.9472 20.3612 49.4906 18.7252 51.3534 18.7252C52.3044 18.7252 53.0059 19.0524 53.4735 19.5899V18.7252H55.6092ZM53.4735 22.488C53.4735 21.4207 52.7642 20.7507 51.7743 20.7507C50.7844 20.7507 50.0829 21.4207 50.0829 22.488C50.0829 23.5553 50.7922 24.2253 51.7743 24.2253C52.7565 24.2253 53.4735 23.5553 53.4735 22.488ZM47.3159 18.7252V21.1636C46.4273 21.0234 45.1646 21.3818 45.1646 22.7996V26.2508H43.0055V18.7252H45.1646V20.1431C45.4452 19.1848 46.4117 18.7252 47.3159 18.7252ZM101.831 26.2586L99.6248 23.2125V26.2586H97.5592V16.2167H99.6248V21.7401L101.69 18.7252H104.099L101.589 22.3711L104.161 26.2508H101.831V26.2586ZM111.62 21.5765V26.2586H109.555V21.8803C109.555 21.0234 109.017 20.6261 108.355 20.6261C107.599 20.6261 107.076 21.0701 107.076 22.0439V26.2586H105.011V16.2167H107.084V19.5666C107.458 19.0602 108.144 18.7252 109.056 18.7252C110.436 18.7252 111.62 19.7224 111.62 21.5765ZM112.455 22.488C112.455 20.369 114.138 18.733 116.227 18.733C118.316 18.733 120 20.369 120 22.488C120 24.607 118.316 26.243 116.227 26.243C114.138 26.243 112.455 24.607 112.455 22.488ZM117.864 22.488C117.864 21.4752 117.155 20.8053 116.227 20.8053C115.299 20.8053 114.59 21.4752 114.59 22.488C114.59 23.5008 115.299 24.1708 116.227 24.1708C117.155 24.1708 117.872 23.5008 117.864 22.488ZM94.3537 24.0373C94.0263 24.2321 93.6522 24.3412 93.2702 24.3334C92.483 24.3334 91.8282 24.0841 91.5632 23.344H96.6297C96.692 23.0635 96.7154 22.7753 96.7154 22.487C96.7154 20.3369 95.1721 18.7242 93.091 18.7242C90.8383 18.7242 89.295 20.3602 89.295 22.487C89.295 24.6138 90.815 26.2498 93.2468 26.2498C94.6031 26.2498 95.6631 25.7513 96.3568 24.7774L94.3537 24.0373ZM93.0676 20.6095C93.7067 20.6095 94.3537 20.9134 94.5797 21.7392H91.5087C91.7113 21.0146 92.257 20.6095 93.0676 20.6095ZM75.7132 24.3419C76.0952 24.3497 76.4693 24.2406 76.7967 24.0459L78.7999 24.786C78.1062 25.7598 77.0461 26.2584 75.6899 26.2584C73.2502 26.2584 71.7381 24.6224 71.7381 22.4956C71.7381 20.3688 73.2814 18.7328 75.534 18.7328C77.6151 18.7328 79.1584 20.3454 79.1584 22.4956C79.1584 22.7838 79.1272 23.0721 79.0727 23.3525H74.014C74.2713 24.0926 74.926 24.3419 75.7132 24.3419ZM77.0227 21.7477C76.7967 20.9219 76.1497 20.6181 75.5106 20.6181C74.7 20.6181 74.1543 21.0232 73.9517 21.7477H77.0227ZM19.9545 26.2586V16.2167H17.663V26.2586H19.9545ZM27.8426 26.2586V21.7635C27.8426 19.7847 26.5799 18.7252 25.0989 18.7252C24.1324 18.7252 23.3997 19.0758 23.0022 19.6211V18.7252H20.8041V26.2586H23.0022V22.2621C23.0022 21.2182 23.5634 20.7507 24.3662 20.7507C25.0755 20.7507 25.6445 21.1714 25.6445 22.0829V26.2586H27.8426ZM63.479 26.2586V21.7635C63.479 19.7847 62.2163 18.7252 60.7354 18.7252C59.7688 18.7252 59.0362 19.0758 58.6386 19.6211V18.7252H56.4406V26.2586H58.6386V22.2621C58.6386 21.2182 59.1998 20.7507 60.0027 20.7507C60.712 20.7507 61.281 21.1714 61.281 22.0829V26.2586H63.479ZM31.5372 26.2586C33.0805 26.2586 34.5069 25.5575 34.5069 23.9215C34.5069 22.2276 33.0609 21.8445 32.0237 21.5697C31.4437 21.416 30.9916 21.2962 30.9916 21C30.9916 20.7429 31.2176 20.6027 31.5917 20.6027C32.0672 20.6027 32.3478 20.8598 32.5505 21.2337L34.3822 20.2521C33.782 19.2394 32.7531 18.7252 31.5995 18.7252C30.1108 18.7252 28.8013 19.5042 28.8013 21.0623C28.8013 22.635 30.2328 23.0345 31.2667 23.3231C31.8513 23.4862 32.3088 23.6139 32.3088 23.8981C32.3088 24.1863 32.0516 24.3421 31.5372 24.3421C30.9058 24.3421 30.5083 24.0461 30.3212 23.5008L28.4661 24.5603C29.0273 25.7133 30.1108 26.2586 31.5372 26.2586ZM42.1689 26.2508V18.7252H39.9708V22.7217C39.9708 23.7656 39.4174 24.2331 38.6068 24.2331C37.8975 24.2331 37.3285 23.8124 37.3285 22.9009V18.7252H35.1304V23.2203C35.1304 25.1991 36.3931 26.2508 37.8741 26.2508C38.8406 26.2508 39.5733 25.9002 39.9708 25.3549V26.2508H42.1689ZM67.8829 18.733C65.716 18.733 64.1026 20.369 64.1026 22.4958C64.1026 24.6148 65.716 26.2586 67.8907 26.2586C69.2937 26.2586 70.5019 25.5341 71.1176 24.42L69.247 23.3528C69.0131 23.8513 68.4831 24.1474 67.8595 24.1474C66.932 24.1474 66.2383 23.4774 66.2383 22.4958C66.2383 21.5142 66.9242 20.8442 67.8517 20.8442C68.4831 20.8442 68.9975 21.1403 69.2392 21.6388L71.1098 20.556C70.4941 19.4575 69.2703 18.733 67.8829 18.733Z" fill="#333846"/>
</svg>
