<?xml version="1.0" encoding="UTF-8"?><svg id="Layer_1" xmlns="http://www.w3.org/2000/svg" viewBox="0 0 309.38 73.33"><defs><style>.cls-1{fill:#f75d34;}.cls-2{fill:#24272c;}</style></defs><path class="cls-1" d="M73.38,36.66c0,17.53-12.69,32.11-29.39,35.04l-3.86-21.9c6.26-1.1,11.02-6.56,11.02-13.14s-4.76-12.04-11.02-13.14L43.99,1.63c16.7,2.93,29.39,17.5,29.39,35.04m-37.89,13.14c-6.26-1.1-11.02-6.56-11.02-13.14s4.76-12.04,11.02-13.14L31.63,1.63C14.94,4.56,2.24,19.13,2.24,36.66s12.69,32.11,29.39,35.04l3.86-21.9"/><g><path class="cls-2" d="M82.28,27.35c0-10.05,7.47-17.76,17.76-17.76,6.2,0,11.66,3.08,14.64,7.91l-6.73,3.9c-1.51-2.63-4.44-4.2-7.9-4.2-6.05,0-9.96,4.05-9.96,10.15s3.91,10.15,9.96,10.15c3.46,0,6.44-1.56,7.9-4.2l6.73,3.9c-2.93,4.83-8.39,7.9-14.64,7.9-10.3,0-17.76-7.71-17.76-17.76"/><path class="cls-2" d="M143.3,18.48v26.68h-7.56v-3.12c-1.67,1.92-4.14,3.08-7.52,3.08-6.61,0-12.06-5.8-12.06-13.32s5.45-13.31,12.06-13.31c3.38,0,5.85,1.16,7.52,3.08v-3.08h7.56Zm-7.56,13.31c0-3.78-2.52-6.15-6-6.15s-6,2.37-6,6.15,2.52,6.15,6,6.15,6-2.37,6-6.15"/><path class="cls-2" d="M161.53,18.48v8.65c-3.16-.51-7.63,.76-7.63,5.8v12.23h-7.63V18.48h7.63v5.04c1.01-3.41,4.42-5.04,7.63-5.04"/><polygon class="cls-2" points="241.79 45.16 233.98 34.38 233.98 45.16 226.66 45.16 226.66 9.59 233.98 9.59 233.98 29.17 241.3 18.48 249.84 18.48 240.96 31.41 250.08 45.16 241.79 45.16"/><path class="cls-2" d="M276.47,28.58v16.58h-7.32v-15.5c0-3.03-1.9-4.44-4.24-4.44-2.69,0-4.54,1.56-4.54,5.03v14.92h-7.32V9.59h7.32v11.87c1.31-1.81,3.75-2.98,6.98-2.98,4.93,0,9.12,3.51,9.12,10.1"/><path class="cls-2" d="M279.43,31.85c0-7.51,5.95-13.31,13.37-13.31s13.37,5.8,13.37,13.31-5.95,13.32-13.37,13.32-13.37-5.8-13.37-13.32m19.17,0c0-3.58-2.52-5.95-5.8-5.95s-5.8,2.37-5.8,5.95,2.52,5.95,5.8,5.95,5.8-2.37,5.8-5.95"/><path class="cls-2" d="M195.2,27.32c0,10.06-7.47,17.78-17.29,17.78h-13.43V9.53h13.43c9.81,0,17.29,7.72,17.29,17.79m-7.57,0c0-6.1-3.86-10.11-9.47-10.11h-6.1v20.23h6.1c5.58,0,9.47-4.01,9.47-10.11"/><path class="cls-2" d="M211.51,38.36c1.49,0,2.82-.41,3.84-1.06,0,0,2.36,.88,7.08,2.63-2.47,3.44-6.21,5.21-11.02,5.21-8.63,0-13.99-5.81-13.99-13.34s5.46-13.34,13.44-13.34c7.38,0,12.84,5.71,12.84,13.34,0,1.07-.1,2.07-.3,3.04h-17.93c.92,2.62,3.24,3.52,6.03,3.52m4.64-9.2c-.8-2.92-3.09-3.99-5.36-3.99-2.87,0-4.81,1.42-5.51,3.99h10.87Z"/><g><path class="cls-2" d="M141.71,57.37c.49,.23,.87,.57,1.16,1s.43,.93,.43,1.5c0,.85-.3,1.56-.89,2.14s-1.32,.86-2.18,.86h-4.58v-10.61h4.25c.83,0,1.53,.28,2.11,.83s.86,1.24,.86,2.06c0,.94-.38,1.68-1.15,2.21Zm-1.82-3.79h-2.84v3.24h2.84c.44,0,.82-.16,1.12-.47,.3-.31,.46-.7,.46-1.15s-.15-.83-.46-1.14-.68-.48-1.11-.48Zm.33,7.97c.48,0,.88-.17,1.2-.5,.32-.33,.49-.74,.49-1.23s-.17-.88-.49-1.21c-.33-.33-.73-.5-1.19-.5h-3.17v3.44h3.17Z"/><path class="cls-2" d="M151.16,55.29h1.32v7.58h-1.32v-1.3c-.66,1-1.61,1.5-2.87,1.5-1.06,0-1.97-.39-2.71-1.16s-1.12-1.72-1.12-2.83,.37-2.05,1.12-2.83,1.65-1.16,2.71-1.16c1.25,0,2.21,.5,2.87,1.5v-1.3Zm-2.7,6.5c.77,0,1.41-.26,1.93-.78,.52-.52,.77-1.17,.77-1.93s-.26-1.41-.77-1.93-1.16-.78-1.93-.78-1.39,.26-1.91,.78-.77,1.17-.77,1.93,.26,1.41,.77,1.93c.52,.52,1.15,.78,1.91,.78Z"/><path class="cls-2" d="M160.75,52.26h1.32v10.61h-1.32v-1.3c-.66,1-1.61,1.5-2.87,1.5-1.06,0-1.97-.39-2.71-1.16s-1.12-1.72-1.12-2.83,.37-2.05,1.12-2.83,1.65-1.16,2.71-1.16c1.25,0,2.21,.5,2.87,1.5v-4.34Zm-2.7,9.54c.77,0,1.41-.26,1.93-.78,.52-.52,.77-1.17,.77-1.93s-.26-1.41-.77-1.93-1.16-.78-1.93-.78-1.39,.26-1.91,.78-.77,1.17-.77,1.93,.26,1.41,.77,1.93c.52,.52,1.15,.78,1.91,.78Z"/><path class="cls-2" d="M167.85,55.1c.89,0,1.6,.28,2.14,.84,.54,.56,.8,1.32,.8,2.28v4.65h-1.32v-4.58c0-.62-.17-1.09-.5-1.43-.33-.34-.79-.51-1.38-.51-.66,0-1.19,.21-1.59,.61-.41,.41-.61,1.04-.61,1.89v4.02h-1.32v-10.61h1.32v4.12c.54-.86,1.35-1.29,2.46-1.29Z"/><path class="cls-2" d="M176.75,56.57h-2.02v4.11c0,.37,.07,.64,.22,.8,.15,.16,.37,.24,.67,.24,.3,0,.68,0,1.12-.02v1.18c-1.15,.15-2,.06-2.53-.28s-.8-.98-.8-1.92v-4.11h-1.5v-1.27h1.5v-1.73l1.32-.39v2.12h2.02v1.27Z"/><path class="cls-2" d="M178.86,59.69c.13,.68,.44,1.2,.93,1.58,.49,.38,1.09,.56,1.81,.56,1,0,1.73-.37,2.18-1.11l1.12,.64c-.74,1.14-1.85,1.71-3.34,1.71-1.2,0-2.18-.38-2.93-1.13-.75-.75-1.13-1.71-1.13-2.86s.37-2.09,1.11-2.85c.74-.76,1.69-1.14,2.87-1.14,1.11,0,2.02,.39,2.72,1.18,.7,.78,1.05,1.73,1.05,2.83,0,.19-.02,.39-.05,.59h-6.35Zm2.62-3.35c-.71,0-1.29,.2-1.76,.6s-.75,.93-.86,1.6h5.06c-.11-.72-.39-1.26-.85-1.64s-.99-.56-1.59-.56Z"/><path class="cls-2" d="M190.7,52.26h1.41v10.61h-1.41v-10.61Z"/><path class="cls-2" d="M198.02,55.1c.89,0,1.6,.28,2.14,.84,.54,.56,.8,1.32,.8,2.28v4.65h-1.32v-4.58c0-.62-.17-1.09-.5-1.43-.33-.34-.79-.51-1.38-.51-.66,0-1.19,.21-1.59,.61-.41,.41-.61,1.04-.61,1.89v4.02h-1.32v-7.58h1.32v1.09c.54-.86,1.35-1.29,2.46-1.29Z"/><path class="cls-2" d="M209.08,52.26h1.32v10.61h-1.32v-1.3c-.66,1-1.61,1.5-2.87,1.5-1.06,0-1.97-.39-2.71-1.16s-1.12-1.72-1.12-2.83,.37-2.05,1.12-2.83,1.65-1.16,2.71-1.16c1.25,0,2.21,.5,2.87,1.5v-4.34Zm-2.7,9.54c.77,0,1.41-.26,1.93-.78,.52-.52,.77-1.17,.77-1.93s-.26-1.41-.77-1.93-1.16-.78-1.93-.78-1.39,.26-1.91,.78-.77,1.17-.77,1.93,.26,1.41,.77,1.93c.52,.52,1.15,.78,1.91,.78Z"/><path class="cls-2" d="M213.07,53.91c-.25,0-.46-.09-.64-.26s-.26-.38-.26-.62,.09-.45,.26-.63c.17-.18,.38-.26,.64-.26s.45,.09,.62,.26c.17,.18,.26,.39,.26,.63s-.09,.45-.26,.62-.38,.26-.62,.26Zm-.67,8.96v-7.58h1.32v7.58h-1.32Z"/><path class="cls-2" d="M222.01,55.29h1.32v7.58h-1.32v-1.3c-.66,1-1.61,1.5-2.87,1.5-1.06,0-1.97-.39-2.71-1.16s-1.12-1.72-1.12-2.83,.37-2.05,1.12-2.83,1.65-1.16,2.71-1.16c1.25,0,2.21,.5,2.87,1.5v-1.3Zm-2.7,6.5c.77,0,1.41-.26,1.93-.78,.52-.52,.77-1.17,.77-1.93s-.26-1.41-.77-1.93-1.16-.78-1.93-.78-1.39,.26-1.91,.78-.77,1.17-.77,1.93,.26,1.41,.77,1.93c.52,.52,1.15,.78,1.91,.78Z"/><path class="cls-2" d="M236.98,62.87h-1.73l-4.58-5.1v5.1h-1.41v-10.61h1.41v4.8l4.43-4.8h1.73l-4.69,5.16,4.84,5.46Z"/><path class="cls-2" d="M243.69,55.29h1.32v7.58h-1.32v-1.3c-.66,1-1.61,1.5-2.87,1.5-1.06,0-1.97-.39-2.71-1.16s-1.12-1.72-1.12-2.83,.37-2.05,1.12-2.83,1.65-1.16,2.71-1.16c1.25,0,2.21,.5,2.87,1.5v-1.3Zm-2.7,6.5c.77,0,1.41-.26,1.93-.78,.52-.52,.77-1.17,.77-1.93s-.26-1.41-.77-1.93-1.16-.78-1.93-.78-1.39,.26-1.91,.78-.77,1.17-.77,1.93,.26,1.41,.77,1.93c.52,.52,1.15,.78,1.91,.78Z"/><path class="cls-2" d="M257.01,57.37c.49,.23,.87,.57,1.16,1s.43,.93,.43,1.5c0,.85-.3,1.56-.89,2.14s-1.32,.86-2.18,.86h-4.58v-10.61h4.25c.83,0,1.53,.28,2.11,.83s.86,1.24,.86,2.06c0,.94-.38,1.68-1.15,2.21Zm-1.82-3.79h-2.84v3.24h2.84c.44,0,.82-.16,1.12-.47,.3-.31,.46-.7,.46-1.15s-.15-.83-.46-1.14-.68-.48-1.11-.48Zm.33,7.97c.48,0,.88-.17,1.2-.5,.32-.33,.49-.74,.49-1.23s-.17-.88-.49-1.21c-.33-.33-.73-.5-1.19-.5h-3.17v3.44h3.17Z"/><path class="cls-2" d="M263.9,55.1c.89,0,1.6,.28,2.14,.84,.54,.56,.8,1.32,.8,2.28v4.65h-1.32v-4.58c0-.62-.17-1.09-.5-1.43-.33-.34-.79-.51-1.38-.51-.66,0-1.19,.21-1.59,.61-.41,.41-.61,1.04-.61,1.89v4.02h-1.32v-10.61h1.32v4.12c.54-.86,1.35-1.29,2.46-1.29Z"/><path class="cls-2" d="M274.96,55.29h1.32v7.58h-1.32v-1.3c-.66,1-1.61,1.5-2.87,1.5-1.06,0-1.97-.39-2.71-1.16s-1.12-1.72-1.12-2.83,.37-2.05,1.12-2.83,1.65-1.16,2.71-1.16c1.25,0,2.21,.5,2.87,1.5v-1.3Zm-2.7,6.5c.77,0,1.41-.26,1.93-.78,.52-.52,.77-1.17,.77-1.93s-.26-1.41-.77-1.93-1.16-.78-1.93-.78-1.39,.26-1.91,.78-.77,1.17-.77,1.93,.26,1.41,.77,1.93c.52,.52,1.15,.78,1.91,.78Z"/><path class="cls-2" d="M279.6,56.57c.43-.94,1.22-1.41,2.37-1.41v1.38c-.65-.03-1.2,.14-1.67,.52s-.7,.98-.7,1.8v4.02h-1.32v-7.58h1.32v1.27Z"/><path class="cls-2" d="M289.24,61.92c-.78,.77-1.72,1.15-2.84,1.15s-2.05-.38-2.83-1.15c-.77-.77-1.16-1.71-1.16-2.83s.39-2.07,1.16-2.84c.77-.77,1.72-1.15,2.83-1.15s2.06,.38,2.84,1.15c.78,.77,1.17,1.71,1.17,2.84s-.39,2.07-1.17,2.83Zm-2.84-.14c.76,0,1.4-.26,1.91-.77,.52-.52,.77-1.16,.77-1.93s-.26-1.41-.77-1.93-1.15-.77-1.91-.77-1.38,.26-1.89,.77-.77,1.16-.77,1.93,.26,1.41,.77,1.93c.52,.51,1.15,.77,1.89,.77Z"/><path class="cls-2" d="M292.94,57.32c0,.29,.15,.52,.45,.69,.3,.17,.65,.32,1.06,.44,.41,.12,.83,.24,1.24,.36,.42,.12,.77,.35,1.06,.69,.29,.34,.43,.77,.43,1.3,0,.69-.27,1.24-.8,1.65-.53,.41-1.21,.62-2.04,.62-.74,0-1.37-.16-1.9-.49s-.9-.75-1.12-1.29l1.14-.65c.12,.36,.35,.65,.68,.86,.33,.21,.73,.32,1.2,.32,.43,0,.79-.08,1.08-.25,.28-.17,.42-.43,.42-.78,0-.29-.15-.53-.44-.7-.29-.18-.65-.33-1.06-.45s-.83-.25-1.24-.37c-.42-.12-.77-.35-1.06-.67s-.44-.74-.44-1.24c0-.66,.25-1.2,.77-1.62,.51-.42,1.15-.64,1.92-.64,.62,0,1.17,.14,1.65,.42,.48,.28,.84,.67,1.08,1.16l-1.11,.62c-.27-.65-.81-.97-1.62-.97-.37,0-.69,.09-.96,.26-.26,.17-.39,.42-.39,.73Z"/><path class="cls-2" d="M304.81,55.29h1.32v7.58h-1.32v-1.3c-.66,1-1.61,1.5-2.87,1.5-1.06,0-1.97-.39-2.71-1.16s-1.12-1.72-1.12-2.83,.37-2.05,1.12-2.83,1.65-1.16,2.71-1.16c1.25,0,2.21,.5,2.87,1.5v-1.3Zm-2.7,6.5c.77,0,1.41-.26,1.93-.78,.52-.52,.77-1.17,.77-1.93s-.26-1.41-.77-1.93-1.16-.78-1.93-.78-1.39,.26-1.91,.78-.77,1.17-.77,1.93,.26,1.41,.77,1.93c.52,.52,1.15,.78,1.91,.78Z"/></g></g></svg>